# xmcd
#
# Track frame offsets:
#	150
#	33862
#	47285
#	59247
#	71540
#	83175
#	103092
#	118707
#	132805
#	146972
#	175772
#	192067
#	207730
#	228732
#	247305
#	262155
#	278547
#	290070
#	309060
#	322962
#
# Disc length: 4685 seconds
#
# Revision: 2
# Processed by: cddbd v1.5.2PL0 Copyright (c) Steve Scherf et al.
# Submitted via: EZCDAudioConverter 2.8.1.1
#
DISCID=35124b14
DTITLE=Jackson 5 - Dacing Machine and Moving Violation
DYEAR=2001
DGENRE=R&B
TTITLE0=I Am Love
TTITLE1=Whatever You Got, I Want
TTITLE2=She's A Rhythm Child
TTITLE3=Dancing Machine
TTITLE4=The Life Of The Party
TTITLE5=What You Don't Know
TTITLE6=If I Don't Love You This Way
TTITLE7=It All Begins And Ends With Love
TTITLE8=The Mirrors Of My Mind
TTITLE9=Forever Came Today
TTITLE10=Moving Violation
TTITLE11=(You Were Made) Especially For Me
TTITLE12=Honey Love
TTITLE13=Body Language (Do The Love Dance)
TTITLE14=All I Do Is Think Of You
TTITLE15=Breezy
TTITLE16=Call Of The Wild
TTITLE17=Time Explosion
TTITLE18=Through Thick And Thin
TTITLE19=Forever Came Today (Disc-O-Tech #3 Version)
EXTD=
EXTT0=
EXTT1=
EXTT2=
EXTT3=
EXTT4=
EXTT5=
EXTT6=
EXTT7=
EXTT8=
EXTT9=
EXTT10=
EXTT11=
EXTT12=
EXTT13=
EXTT14=
EXTT15=
EXTT16=
EXTT17=
EXTT18=
EXTT19=
PLAYORDER=
